<svg width="44" height="44" viewBox="0 0 44 44" fill="none" xmlns="http://www.w3.org/2000/svg">
<rect x="0.5" y="0.5" width="43" height="43" rx="5.5" fill="#F7F7F8"/>
<rect x="0.5" y="0.5" width="43" height="43" rx="5.5" stroke="#F1F1F3"/>
<path fill-rule="evenodd" clip-rule="evenodd" d="M13.25 15.75C13.25 14.3693 14.3693 13.25 15.75 13.25H16.893C17.61 13.25 18.235 13.738 18.4089 14.4335L19.3304 18.1195C19.4828 18.7294 19.2549 19.3713 18.752 19.7485L17.674 20.557C17.5621 20.641 17.5377 20.7639 17.5692 20.8497C18.5154 23.4329 20.5671 25.4846 23.1503 26.4308C23.2361 26.4623 23.359 26.4379 23.443 26.326L24.2515 25.248C24.6287 24.7451 25.2706 24.5172 25.8805 24.6696L29.5665 25.5911C30.262 25.765 30.75 26.39 30.75 27.107V28.25C30.75 29.6307 29.6307 30.75 28.25 30.75H26.375C19.1263 30.75 13.25 24.8737 13.25 17.625V15.75Z" fill="#262626"/>
</svg>
