<svg width="44" height="44" viewBox="0 0 44 44" fill="none" xmlns="http://www.w3.org/2000/svg">
<rect x="0.5" y="0.5" width="43" height="43" rx="5.5" fill="#F7F7F8"/>
<rect x="0.5" y="0.5" width="43" height="43" rx="5.5" stroke="#F1F1F3"/>
<path fill-rule="evenodd" clip-rule="evenodd" d="M21.6165 30.6259C21.6416 30.6405 21.6614 30.6517 21.6754 30.6596L21.6987 30.6726C21.8844 30.7745 22.1148 30.7738 22.3007 30.6729L22.3246 30.6596C22.3386 30.6517 22.3584 30.6405 22.3835 30.6259C22.4339 30.5967 22.5058 30.5542 22.5963 30.4985C22.7771 30.3872 23.0323 30.223 23.3372 30.0076C23.9459 29.5776 24.7581 28.9395 25.5721 28.1061C27.1922 26.4474 28.875 23.9551 28.875 20.75C28.875 16.953 25.797 13.875 22 13.875C18.203 13.875 15.125 16.953 15.125 20.75C15.125 23.9551 16.8078 26.4474 18.4279 28.1061C19.2419 28.9395 20.0541 29.5776 20.6628 30.0076C20.9677 30.223 21.2229 30.3872 21.4037 30.4985C21.4942 30.5542 21.5661 30.5967 21.6165 30.6259ZM22 23.25C23.3807 23.25 24.5 22.1307 24.5 20.75C24.5 19.3693 23.3807 18.25 22 18.25C20.6193 18.25 19.5 19.3693 19.5 20.75C19.5 22.1307 20.6193 23.25 22 23.25Z" fill="#262626"/>
</svg>
