<svg width="297" height="21" viewBox="0 0 297 21" fill="none" xmlns="http://www.w3.org/2000/svg">
<line y1="10" x2="126.5" y2="10" stroke="#E4E4E7"/>
<path d="M148.514 10.9091C148.514 11.983 148.32 12.911 147.933 13.6932C147.545 14.4754 147.013 15.0786 146.337 15.5028C145.661 15.9271 144.888 16.1392 144.02 16.1392C143.152 16.1392 142.379 15.9271 141.703 15.5028C141.027 15.0786 140.495 14.4754 140.107 13.6932C139.72 12.911 139.526 11.983 139.526 10.9091C139.526 9.83523 139.72 8.9072 140.107 8.125C140.495 7.3428 141.027 6.73958 141.703 6.31534C142.379 5.8911 143.152 5.67898 144.02 5.67898C144.888 5.67898 145.661 5.8911 146.337 6.31534C147.013 6.73958 147.545 7.3428 147.933 8.125C148.32 8.9072 148.514 9.83523 148.514 10.9091ZM147.321 10.9091C147.321 10.0275 147.174 9.28338 146.879 8.67685C146.587 8.07031 146.191 7.61127 145.69 7.29972C145.193 6.98816 144.636 6.83239 144.02 6.83239C143.403 6.83239 142.845 6.98816 142.345 7.29972C141.847 7.61127 141.451 8.07031 141.156 8.67685C140.865 9.28338 140.719 10.0275 140.719 10.9091C140.719 11.7907 140.865 12.5348 141.156 13.1413C141.451 13.7479 141.847 14.2069 142.345 14.5185C142.845 14.83 143.403 14.9858 144.02 14.9858C144.636 14.9858 145.193 14.83 145.69 14.5185C146.191 14.2069 146.587 13.7479 146.879 13.1413C147.174 12.5348 147.321 11.7907 147.321 10.9091ZM150.587 16V5.81818H154.028C154.823 5.81818 155.476 5.95407 155.987 6.22585C156.497 6.49432 156.875 6.86387 157.12 7.33452C157.365 7.80516 157.488 8.34044 157.488 8.94034C157.488 9.54025 157.365 10.0722 157.12 10.5362C156.875 11.0002 156.499 11.3648 155.992 11.63C155.484 11.8918 154.837 12.0227 154.048 12.0227H151.264V10.9091H154.008C154.551 10.9091 154.989 10.8295 155.32 10.6705C155.655 10.5114 155.897 10.286 156.046 9.99432C156.199 9.69934 156.275 9.34801 156.275 8.94034C156.275 8.53267 156.199 8.17637 156.046 7.87145C155.894 7.56652 155.65 7.3312 155.315 7.16548C154.981 6.99645 154.538 6.91193 153.988 6.91193H151.82V16H150.587ZM155.38 11.4261L157.886 16H156.454L153.988 11.4261H155.38Z" fill="#98989A"/>
<line x1="170.5" y1="10" x2="297" y2="10" stroke="#E4E4E7"/>
</svg>
