<svg width="44" height="44" viewBox="0 0 44 44" fill="none" xmlns="http://www.w3.org/2000/svg">
<rect x="0.5" y="0.5" width="43" height="43" rx="5.5" fill="#F7F7F8"/>
<rect x="0.5" y="0.5" width="43" height="43" rx="5.5" stroke="#F1F1F3"/>
<path d="M13.25 19.2242V26.375C13.25 27.7557 14.3693 28.875 15.75 28.875H28.25C29.6307 28.875 30.75 27.7557 30.75 26.375V19.2242L23.3102 23.8026C22.5067 24.297 21.4933 24.297 20.6898 23.8026L13.25 19.2242Z" fill="#262626"/>
<path d="M30.75 17.7565V17.625C30.75 16.2443 29.6307 15.125 28.25 15.125H15.75C14.3693 15.125 13.25 16.2443 13.25 17.625V17.7565L21.3449 22.738C21.7466 22.9852 22.2534 22.9852 22.6551 22.738L30.75 17.7565Z" fill="#262626"/>
</svg>
